<svg width="530" height="290" viewBox="-20 10 670 325" fill="none" xmlns="http://www.w3.org/2000/svg">
<path opacity="0.30" d="M567.424 205.41C564.457 214.737 554.03 221.501 537.035 225.477C520.113 229.436 497.028 230.542 469.379 228.857C414.098 225.488 340.806 210.979 262.624 186.111C184.442 161.242 116.237 130.743 69.1685 101.555C45.6276 86.9573 27.4232 72.7176 15.8982 59.7102C4.32349 46.6468 -0.279855 35.1019 2.68708 25.7745C5.65402 16.4471 16.0811 9.68321 33.0759 5.70735C49.9976 1.74858 73.0831 0.64266 100.732 2.32742C156.013 5.69598 229.304 20.2051 307.486 45.0738C385.668 69.9425 453.874 100.442 500.942 129.629C524.483 144.227 542.687 158.467 554.212 171.474C565.787 184.538 570.391 196.083 567.424 205.41Z" stroke="#8d59c1" stroke-width="2"/>
</svg>
