<?xml version="1.0" encoding="UTF-8"?>
<!DOCTYPE svg PUBLIC "-//W3C//DTD SVG 1.1//EN" "http://www.w3.org/Graphics/SVG/1.1/DTD/svg11.dtd">
<svg xmlns="http://www.w3.org/2000/svg" version="1.1" width="1024px" height="512px" style="shape-rendering:geometricPrecision; text-rendering:geometricPrecision; image-rendering:optimizeQuality; fill-rule:evenodd; clip-rule:evenodd" xmlns:xlink="http://www.w3.org/1999/xlink">
<g><path style="opacity:0.817" fill="#000000" d="M 158.5,158.5 C 160.722,158.178 162.556,158.845 164,160.5C 181.284,185.609 199.118,210.276 217.5,234.5C 235.527,209.639 253.361,184.639 271,159.5C 272.699,158.594 274.533,158.261 276.5,158.5C 276.5,198.5 276.5,238.5 276.5,278.5C 274.833,278.5 273.167,278.5 271.5,278.5C 271.667,242.498 271.5,206.498 271,170.5C 254.372,193.596 237.872,216.762 221.5,240C 229.205,251.237 237.038,262.404 245,273.5C 245.494,275.134 245.66,276.801 245.5,278.5C 243.533,278.739 241.699,278.406 240,277.5C 212.912,238.991 185.579,200.657 158,162.5C 157.421,161.072 157.588,159.738 158.5,158.5 Z"/></g>
<g><path style="opacity:0.803" fill="#000000" d="M 328.5,158.5 C 344.551,156.763 359.551,159.93 373.5,168C 375.351,169.684 377.018,171.517 378.5,173.5C 378.167,175.167 377.167,176.167 375.5,176.5C 367.24,171.04 358.24,167.206 348.5,165C 335.817,162.606 324.15,164.939 313.5,172C 303.261,182.38 302.928,193.046 312.5,204C 317.998,207.748 323.998,210.415 330.5,212C 342.002,214.375 353.335,217.375 364.5,221C 380.091,228.021 385.591,239.854 381,256.5C 375.285,268.532 365.785,275.699 352.5,278C 329.939,281.48 310.939,274.813 295.5,258C 295.645,257.228 295.978,256.561 296.5,256C 298.167,255.333 299.833,255.333 301.5,256C 319.33,272.875 339.663,276.875 362.5,268C 372.959,262.249 377.459,253.416 376,241.5C 374.657,237.49 372.491,233.99 369.5,231C 364.226,227.53 358.56,224.864 352.5,223C 340.762,220.253 329.095,217.253 317.5,214C 298.728,203.478 294.894,188.978 306,170.5C 312.509,164.498 320.009,160.498 328.5,158.5 Z"/></g>
<g><path style="opacity:0.833" fill="#000000" d="M 390.5,158.5 C 416.833,158.5 443.167,158.5 469.5,158.5C 469.859,160.766 469.192,162.599 467.5,164C 442.5,164.667 417.5,164.667 392.5,164C 390.808,162.599 390.141,160.766 390.5,158.5 Z"/></g>
<g><path style="opacity:0.996" fill="#202020" d="M 521.5,158.5 C 535.463,155.656 547.296,159.323 557,169.5C 558.711,171.956 560.044,174.623 561,177.5C 561.667,195.833 561.667,214.167 561,232.5C 554.104,247.703 542.27,254.203 525.5,252C 513.043,250.203 504.876,243.37 501,231.5C 500.333,213.833 500.333,196.167 501,178.5C 504.419,168.247 511.252,161.58 521.5,158.5 Z M 526.5,163.5 C 548.513,163.519 558.18,174.519 555.5,196.5C 554.748,208.818 554.248,221.152 554,233.5C 547.278,244.602 537.445,248.769 524.5,246C 516.837,243.992 511.337,239.492 508,232.5C 507.333,214.167 507.333,195.833 508,177.5C 512.137,170.029 518.304,165.362 526.5,163.5 Z"/></g>
<g><path style="opacity:0.875" fill="#000000" d="M 599.5,158.5 C 615.837,158.333 632.17,158.5 648.5,159C 678.885,167.222 695.218,187.055 697.5,218.5C 695.847,248.314 680.847,267.814 652.5,277C 640.253,279.208 627.919,279.875 615.5,279C 614.504,240.906 614.17,202.739 614.5,164.5C 611.167,164.5 607.833,164.5 604.5,164.5C 604.833,202.506 604.5,240.506 603.5,278.5C 602.5,279.833 601.5,279.833 600.5,278.5C 599.5,238.506 599.167,198.506 599.5,158.5 Z M 619.5,163.5 C 639.077,160.977 656.743,165.477 672.5,177C 693.181,197.921 696.681,221.421 683,247.5C 666.936,268.144 645.77,276.81 619.5,273.5C 619.5,236.833 619.5,200.167 619.5,163.5 Z"/></g>
<g><path style="opacity:0.787" fill="#000000" d="M 719.5,158.5 C 721.467,158.261 723.301,158.594 725,159.5C 725.667,198.833 725.667,238.167 725,277.5C 723.561,279.014 722.061,279.347 720.5,278.5C 719.5,238.506 719.167,198.506 719.5,158.5 Z"/></g>
<g><path style="opacity:0.808" fill="#000000" d="M 795.5,158.5 C 831.771,155.365 855.271,171.031 866,205.5C 870.539,236.59 859.039,259.423 831.5,274C 800.219,285.129 774.719,277.296 755,250.5C 742.574,226.34 743.908,203.007 759,180.5C 768.848,169.166 781.014,161.833 795.5,158.5 Z M 796.5,164.5 C 828.783,161.984 849.95,175.984 860,206.5C 864.2,238.279 851.367,259.779 821.5,271C 786.763,276.564 763.93,262.731 753,229.5C 749.752,195.921 764.252,174.254 796.5,164.5 Z"/></g>
<g><path style="opacity:0.823" fill="#000000" d="M 390.5,172.5 C 417.167,172.5 443.833,172.5 470.5,172.5C 470.859,174.766 470.192,176.599 468.5,178C 456.838,178.5 445.171,178.667 433.5,178.5C 433.833,211.84 433.5,245.173 432.5,278.5C 430.939,279.347 429.439,279.014 428,277.5C 427.5,244.502 427.333,211.502 427.5,178.5C 415.829,178.667 404.162,178.5 392.5,178C 390.808,176.599 390.141,174.766 390.5,172.5 Z"/></g>
<g><path style="opacity:0.803" fill="#000000" d="M 158.5,182.5 C 161.509,182.423 163.676,183.756 165,186.5C 185,214.5 205,242.5 225,270.5C 226.707,272.909 227.54,275.575 227.5,278.5C 225.533,278.739 223.699,278.406 222,277.5C 202.912,250.324 183.579,223.324 164,196.5C 163.667,223.167 163.333,249.833 163,276.5C 161.561,278.014 160.061,278.347 158.5,277.5C 157.175,245.767 157.175,214.1 158.5,182.5 Z"/></g>
<g><path style="opacity:0.996" fill="#1f1f1f" d="M 534.5,268.5 C 533.539,270.265 533.205,272.265 533.5,274.5C 538.833,274.5 544.167,274.5 549.5,274.5C 550.434,275.568 550.768,276.901 550.5,278.5C 537.5,278.5 524.5,278.5 511.5,278.5C 510.756,275.05 512.09,273.384 515.5,273.5C 519.634,274.485 523.968,274.818 528.5,274.5C 528.795,272.265 528.461,270.265 527.5,268.5C 527.5,267.5 527.5,266.5 527.5,265.5C 512.744,264.705 500.577,258.705 491,247.5C 488.344,243.856 486.511,239.856 485.5,235.5C 485.335,232.482 485.502,229.482 486,226.5C 487.011,225.663 488.178,225.33 489.5,225.5C 491.515,241.979 500.515,252.812 516.5,258C 535.188,263.121 551.355,258.954 565,245.5C 569.297,239.53 571.797,232.863 572.5,225.5C 576.926,223.944 578.593,225.611 577.5,230.5C 576.394,239.213 572.727,246.713 566.5,253C 557.266,260.782 546.599,264.949 534.5,265.5C 534.5,266.5 534.5,267.5 534.5,268.5 Z"/></g>
<g><path style="opacity:1" fill="#535353" d="M 489.5,225.5 C 488.178,225.33 487.011,225.663 486,226.5C 485.502,229.482 485.335,232.482 485.5,235.5C 484.359,232.36 484.192,229.027 485,225.5C 486.616,224.199 488.116,224.199 489.5,225.5 Z"/></g>
<g><path style="opacity:0.836" fill="#000000" d="M 866.5,267.5 C 874.993,266.471 877.327,269.637 873.5,277C 868.848,279.051 865.848,277.551 864.5,272.5C 865.174,270.805 865.841,269.138 866.5,267.5 Z"/></g>
<g><path style="opacity:0.502" fill="#707070" d="M 527.5,268.5 C 528.461,270.265 528.795,272.265 528.5,274.5C 523.968,274.818 519.634,274.485 515.5,273.5C 519.5,273.5 523.5,273.5 527.5,273.5C 527.5,271.833 527.5,270.167 527.5,268.5 Z"/></g>
<g><path style="opacity:0.502" fill="#6f6f6f" d="M 534.5,268.5 C 534.5,270.167 534.5,271.833 534.5,273.5C 539.695,273.179 544.695,273.513 549.5,274.5C 544.167,274.5 538.833,274.5 533.5,274.5C 533.205,272.265 533.539,270.265 534.5,268.5 Z"/></g>
</svg>
